<?xml version="1.0" encoding="utf-8"?>
<!-- Generator: Adobe Illustrator 23.0.3, SVG Export Plug-In . SVG Version: 6.00 Build 0)  -->
<svg version="1.1" id="Capa_1" xmlns="http://www.w3.org/2000/svg" xmlns:xlink="http://www.w3.org/1999/xlink" x="0px" y="0px"
	 viewBox="0 0 1200 1200" enable-background="new 0 0 1200 1200" xml:space="preserve">
<path fill="#93A04A" d="M500.421,1150c2.013,0,3.808-0.062,5.361-0.181c11.366-0.861,27.309-3.329,45.768-6.184
	c40.31-6.241,95.517-14.784,120.931-7.816c23.041,6.308,143.45,28.938,250.587-146.641c40.929-67.072,49.722-142.9,25.436-219.287
	c-21.609-67.956-61.039-111.524-61.437-111.957c-2.317-2.53-5.107-5.372-8.338-8.665c-19.959-20.337-57.107-58.192-69.559-115.121
	c-1.321-6.032-2.655-12.676-4.086-19.783c-13.913-69.155-36.44-181.066-134.897-205.569c11.456-24.639,41.289-89.188,50.595-112.987
	l1.846-4.689c11.926-30.21,29.95-75.865,4.538-108.707c-9.039-11.681-19.244-17.691-30.329-17.857
	c-0.152-0.003-0.303-0.004-0.455-0.004c-16.522,0-27.855,13.537-28.334,14.117c-1.359,1.652-2.03,3.763-1.873,5.896
	c0.796,10.796,1.108,21.374,1.062,31.724c-20.618-27.24-68.342-73.731-149.565-65.277c-0.115,0.009-0.227,0.02-0.34,0.034
	c-4.023,0.426-8.117,0.971-12.304,1.675C384.813,72.93,309.734,217.067,306.598,223.193c-0.106,0.208-0.168,0.425-0.254,0.637
	c-0.097,0.239-0.211,0.47-0.287,0.716c-0.099,0.323-0.153,0.649-0.211,0.977c-0.032,0.18-0.085,0.355-0.106,0.537
	c-0.047,0.431-0.047,0.862-0.028,1.291c0.004,0.088-0.009,0.175-0.003,0.263c0.039,0.518,0.129,1.029,0.263,1.529
	c0.037,0.134,0.1,0.26,0.142,0.393c0.119,0.366,0.245,0.729,0.413,1.076c0.077,0.156,0.179,0.302,0.265,0.454
	c0.179,0.315,0.363,0.624,0.582,0.915c0.037,0.047,0.057,0.1,0.093,0.146c0.073,0.093,0.168,0.156,0.244,0.245
	c0.273,0.318,0.567,0.617,0.89,0.895c0.166,0.142,0.333,0.277,0.506,0.404c0.116,0.084,0.212,0.186,0.333,0.265
	c4.392,2.879,98.559,63.88,186.057,63.88c9.721,0,19.36-0.754,28.784-2.422c2.725-0.483,5.404-1.01,8.054-1.562
	c0.026-0.004,0.05-0.01,0.074-0.014c56.989-11.895,96.396-39.312,117.866-58.118c-9.583,34.401-20.503,58.709-25.057,68.135
	c-125.371,0.125-173.863,105.29-209.699,182.945c-3.851,8.345-7.488,16.225-11.096,23.715
	c-22.746,47.237-40.764,67.965-58.187,88.012c-12.119,13.94-23.566,27.111-35.974,47.96c-1.453,2.441-3.015,5.034-4.668,7.778
	c-33.179,55.053-102.215,169.608-46.528,315.875C316.692,1121.482,457.852,1150.003,500.421,1150z M696.589,81.182
	c5.775,0.088,11.637,3.925,17.425,11.408c19.623,25.36,4.322,64.123-6.852,92.426l-1.865,4.74
	c-9.529,24.368-42.294,95.065-51.95,115.814c-3.261-0.444-6.607-0.786-10.017-1.05c13.639-29.742,46.431-113.338,39.692-217.383
	C685.756,84.721,690.827,81.222,696.589,81.182z M664.463,142.32c0.089,0.179,0.184,0.353,0.284,0.525l1.371,2.342
	c-0.276,3.819-0.599,7.592-0.966,11.321c-11.327-7.48-33.273-18.143-70.591-22.667c-3.599-32.741-23.67-53.821-42.001-66.473
	C629.98,75.034,662.883,139.138,664.463,142.32z M507.785,69.118c3.276-0.55,6.487-0.993,9.648-1.359
	c8.832,3.182,53.121,21.222,60.141,64.554c-16.04-0.988-34.411-0.886-55.432,0.858c-23.038,1.911-45.335,6.549-66.312,12.71
	c-11.761-18.886-29.21-26.471-42.878-29.433C439.852,93.842,471.827,75.163,507.785,69.118z M396.564,131.245
	c7.664,0.058,29.042,1.943,42.692,19.892c-40.423,13.819-74.78,32.573-98.09,47.12C354.029,179.096,372.822,154.216,396.564,131.245
	z M394.062,258.309c-28.582-11.452-52.27-24.419-65.107-31.945c11.744-8.215,33.395-22.363,61.325-36.348
	C397.445,201.487,410.697,229.302,394.062,258.309z M409.77,264.246c16.469-31.178,6.786-62.93-4.345-81.485
	c24.598-11.261,53-21.661,83.244-27.898c3.197,3.478,8.686,10.02,14.485,19.422c-48.455,6.748-78.302,21.344-80.362,22.378
	c-4.105,2.057-5.767,7.051-3.71,11.156c1.459,2.911,4.392,4.591,7.439,4.591c1.253,0,2.522-0.283,3.718-0.882
	c0.494-0.247,31.371-15.33,81.402-21.395c9.849,21.375,17.493,51.253,11.963,88.455c-0.748,0.139-1.474,0.299-2.227,0.432
	C485.382,285.395,444.987,276.728,409.77,264.246z M656.315,206.215c-0.425,0.527-40.101,48.827-115.432,68.508
	c4.105-35.334-2.411-64.33-11.617-86.27c27.857-1.913,60.432-0.739,96.241,6.779c4.498,0.947,8.904-1.936,9.843-6.429
	c0.944-4.492-1.932-8.901-6.427-9.844c-40.545-8.514-76.974-9.365-107.538-6.73c-4.74-8.524-9.571-15.438-13.684-20.671
	c5.239-0.738,10.506-1.377,15.817-1.817c105.435-8.741,138.882,25.54,139.212,25.892l0.112,0.122
	c-1.405,9.87-3.076,19.343-4.938,28.372L656.315,206.215z M319.834,662.828c1.67-2.774,3.25-5.394,4.717-7.859
	c11.645-19.569,22.616-32.193,34.234-45.557c18.143-20.873,36.905-42.456,60.62-91.704c3.667-7.613,7.331-15.554,11.209-23.962
	c35.793-77.561,79.961-173.297,194.944-173.297c4.942,0,10.029,0.177,15.236,0.54c5.112,0.357,10.036,0.954,14.784,1.773
	c0.76,0.251,1.53,0.411,2.303,0.437c95.415,18.137,117.451,127.586,130.904,194.445c1.451,7.207,2.804,13.943,4.143,20.059
	c13.474,61.602,52.804,101.682,73.935,123.213c3.123,3.185,5.821,5.932,7.945,8.251c0.371,0.406,37.341,41.259,57.851,105.765
	c23.109,72.682,15.106,141.85-23.782,205.588c-100.927,165.408-210.973,145.036-232.001,139.263
	c-28.835-7.894-83.75,0.595-127.87,7.421c-18.116,2.804-33.76,5.226-44.48,6.038c-42.994,3.229-177.275-30.756-229.922-169.037
	C221.798,825.5,288.011,715.629,319.834,662.828z M448.535,523.548c47.646-159.452,122.793-174.447,125.967-175.009
	c4.506-0.782,8.836,2.219,9.632,6.743c0.796,4.499-2.189,8.79-6.671,9.619c-1.042,0.214-68.795,15.482-112.999,163.41
	c-1.077,3.605-4.381,5.935-7.962,5.935c-0.788,0-1.589-0.114-2.384-0.352C449.72,532.581,447.219,527.948,448.535,523.548z
	 M569.55,394.663c3.001,3.475,2.617,8.725-0.858,11.725c-15.618,13.484-30.199,32.042-43.34,55.159
	c-1.532,2.694-4.344,4.206-7.237,4.206c-1.391,0-2.804-0.35-4.1-1.088c-3.992-2.269-5.388-7.345-3.12-11.336
	c14.086-24.77,29.874-44.796,46.929-59.524C561.296,390.801,566.548,391.183,569.55,394.663z M283.359,859.038
	c-5.68-163.105,99.877-250.547,104.372-254.189c3.567-2.893,8.801-2.338,11.694,1.226c2.89,3.57,2.341,8.803-1.226,11.694
	c-1.432,1.172-103.595,86.454-98.223,240.691c2.999,86.029,40.199,141.244,70.877,172.415
	c38.664,39.286,83.076,57.608,109.359,61.364c23.328,3.334,48.894-0.233,75.97-4.008c41.305-5.756,84.015-11.707,127.605,4.441
	c4.303,1.597,6.5,6.381,4.906,10.687c-1.599,4.306-6.376,6.498-10.687,4.906c-39.66-14.703-80.264-9.044-119.529-3.567
	c-20.118,2.804-39.446,5.499-58.157,5.499c-7.583,0-15.063-0.444-22.456-1.499C416.937,1099.994,289.229,1027.518,283.359,859.038z
	 M398.374,1000.001c35.17,35.514,75.542,52.076,99.427,55.467c21.174,3.012,44.474-0.217,69.136-3.632
	c5.718-0.793,11.491-1.591,17.301-2.322c4.557-0.563,8.714,2.655,9.285,7.212c0.574,4.555-2.655,8.711-7.212,9.285
	c-5.74,0.723-11.442,1.513-17.093,2.295c-18.381,2.547-36.039,4.993-53.156,4.993c-6.952,0-13.813-0.403-20.6-1.369
	c-55.814-7.924-172.802-73.897-178.176-227.246c-2.105-60.079,13.012-118.404,43.714-168.669c2.395-3.919,7.51-5.153,11.428-2.763
	c3.919,2.395,5.155,7.51,2.763,11.428c-29.417,48.158-43.308,101.795-41.289,159.419
	C336.632,921.896,370.47,971.818,398.374,1000.001z M777.5,605.685c-1.399-2.243-34.25-55.665-32.724-118.138
	c0.111-4.521,3.81-8.111,8.308-8.111c0.068,0,0.135,0.001,0.206,0.003c4.59,0.112,8.222,3.924,8.108,8.514
	c-1.405,57.548,29.896,108.426,30.213,108.932c2.427,3.897,1.239,9.025-2.655,11.456c-1.369,0.852-2.89,1.258-4.392,1.258
	C781.789,609.598,779.078,608.213,777.5,605.685z M827.831,1041.539c-2.985-3.488-2.574-8.738,0.917-11.721
	c119.478-102.139,68.739-226.629,68.211-227.874c-1.786-4.23,0.192-9.107,4.422-10.895c4.227-1.789,9.107,0.192,10.895,4.422
	c0.59,1.399,14.457,34.802,12.47,82.072c-1.832,43.573-18.099,107.554-85.195,164.913c-1.567,1.34-3.486,1.995-5.399,1.995
	C831.806,1044.451,829.476,1043.463,827.831,1041.539z"/>
</svg>
